<svg width="0" height="0" class="hidden">
  <symbol version="1.0" xmlns="http://www.w3.org/2000/svg" preserveAspectRatio="xMidYMid meet" viewBox="0 0 1280.000000 1280.000000" id="fairy">
    <metadata>Created by potrace 1.15, written by Peter Selinger 2001-2017</metadata>
    <g transform="translate(0.000000,1280.000000) scale(0.100000,-0.100000)" fill="#000000" stroke="none">
      <path d="M8511 12635 c-278 -114 -570 -344 -760 -598 -52 -70 -78 -96 -89 -93
-158 48 -431 34 -570 -29 -59 -27 -159 -117 -198 -180 l-27 -41 -91 -12 c-121
-17 -244 -75 -338 -161 -54 -50 -72 -61 -100 -61 -19 0 -60 -7 -91 -15 -189
-49 -320 -195 -375 -420 -44 -177 -45 -266 -2 -395 39 -119 88 -206 140 -248
58 -48 72 -82 71 -169 -2 -143 46 -272 137 -366 52 -54 222 -202 249 -216 35
-18 143 -13 208 9 32 11 60 20 62 20 2 0 -8 -22 -21 -48 -13 -27 -30 -77 -37
-113 -7 -35 -13 -65 -14 -66 -1 -2 -172 37 -381 86 -244 57 -406 100 -454 120
-41 18 -232 90 -425 161 -348 127 -351 128 -550 245 -110 65 -328 188 -485
272 -157 85 -325 181 -375 213 -105 67 -198 115 -274 141 -49 17 -88 19 -386
19 l-332 0 -44 -24 c-79 -45 -224 -86 -340 -99 -104 -11 -110 -13 -116 -36
-13 -53 78 -82 197 -63 36 5 73 13 82 17 16 6 16 4 4 -22 -20 -39 -39 -169
-32 -206 3 -17 14 -42 23 -56 23 -35 24 -47 5 -64 -20 -18 -991 -727 -996
-727 -1 0 -20 45 -41 101 -21 55 -41 97 -45 92 -4 -4 -35 -49 -69 -100 l-61
-92 -121 -3 -121 -3 67 -87 67 -86 -26 -128 c-14 -70 -24 -129 -22 -131 2 -2
51 18 109 46 l106 49 108 -73 c59 -41 109 -71 111 -67 1 4 -4 65 -11 135 l-13
128 113 71 c71 45 109 74 101 79 -7 3 -55 16 -105 29 -92 22 -93 22 -70 40 12
9 260 184 550 389 432 305 531 370 543 360 33 -27 105 -4 374 125 l265 127 68
-28 c112 -44 211 -117 376 -277 161 -156 283 -254 431 -346 93 -58 303 -166
390 -200 30 -12 143 -68 250 -126 314 -167 767 -367 1065 -470 44 -15 82 -29
84 -31 2 -1 -3 -11 -11 -20 -31 -35 -58 -104 -67 -169 -6 -37 -16 -71 -23 -75
-22 -14 -326 -10 -414 5 -188 33 -258 64 -387 168 -428 344 -800 435 -1094
266 -152 -87 -245 -201 -302 -373 -63 -188 -66 -220 -66 -765 0 -420 -3 -509
-17 -591 -37 -208 -86 -381 -163 -584 -58 -152 -75 -236 -96 -490 -32 -382 37
-757 159 -867 73 -66 114 -45 132 68 5 33 19 118 31 189 56 339 180 591 356
724 80 60 195 111 267 118 49 4 52 3 73 -30 13 -20 39 -43 62 -53 27 -12 44
-27 50 -46 7 -18 23 -34 45 -43 22 -9 36 -23 38 -36 6 -45 46 -61 156 -62 119
-2 110 8 119 -147 6 -117 -9 -216 -53 -350 -37 -111 -116 -270 -182 -369 -82
-121 -118 -187 -137 -253 -18 -63 -14 -89 18 -118 23 -22 97 -27 141 -10 31
12 32 10 4 -43 -14 -28 -23 -67 -26 -119 -4 -69 -2 -83 25 -140 17 -35 50 -84
74 -110 24 -25 289 -264 589 -531 534 -474 549 -489 774 -740 188 -210 237
-271 269 -334 56 -112 114 -188 210 -279 95 -89 156 -128 288 -186 73 -31 145
-71 188 -104 1 -1 -4 -13 -13 -26 -21 -30 -20 -76 3 -114 54 -89 238 -89 291
-1 l18 30 6 -44 c4 -24 33 -282 66 -574 32 -291 68 -587 79 -657 26 -160 26
-162 -4 -178 -63 -34 -86 -141 -45 -208 21 -34 87 -71 128 -72 15 0 26 -9 34
-27 40 -101 102 -217 133 -251 50 -56 94 -70 143 -44 69 36 77 62 77 267 -1
144 -6 215 -28 357 -15 97 -27 207 -27 245 0 92 23 234 50 313 31 91 38 255
13 324 -25 69 -73 105 -147 113 -65 7 -67 9 -89 108 -40 179 -47 562 -13 750
22 128 31 395 17 545 -23 246 -76 533 -120 650 -23 60 -87 171 -155 268 -61
85 -80 172 -79 352 0 74 8 187 17 251 26 180 35 430 24 666 l-9 213 33 44 c33
42 34 46 28 107 -4 35 -6 65 -6 65 1 1 26 4 56 5 l55 4 18 -70 c11 -41 21
-125 24 -202 6 -130 5 -134 -22 -195 -75 -167 3 -378 140 -378 58 0 107 37
141 106 52 107 34 250 -45 339 -41 47 -110 247 -135 391 -5 31 -4 32 57 54
137 49 251 138 327 255 24 36 41 67 39 70 -3 2 -50 13 -105 24 -158 32 -260
76 -286 124 -11 20 -78 169 -78 174 0 1 25 -14 56 -32 123 -74 359 -156 629
-217 l140 -32 188 -120 c169 -107 193 -127 232 -181 78 -109 142 -258 185
-425 l21 -81 -24 -32 c-36 -48 -50 -102 -45 -171 6 -74 25 -114 79 -166 159
-154 430 -38 431 184 1 112 -64 207 -166 244 l-51 19 -127 239 c-70 131 -138
274 -152 317 -48 145 -30 292 50 412 48 72 62 83 155 115 171 60 277 173 310
332 7 31 54 134 113 248 110 212 129 263 147 406 26 206 -30 399 -162 562 -66
82 -237 226 -382 323 -315 208 -672 327 -1070 355 -54 3 -96 8 -95 10 10 10
222 57 334 74 168 25 270 31 609 34 399 4 468 22 704 179 74 50 146 110 237
202 117 117 147 154 287 363 133 197 167 254 218 375 151 350 228 657 250 992
10 149 14 171 59 310 117 366 147 635 89 790 -29 77 -104 155 -173 178 -159
54 -380 12 -695 -133 -69 -32 -137 -61 -151 -65 -14 -4 -68 -25 -120 -47 -369
-156 -683 -377 -997 -701 l-132 -136 -4 467 -3 467 -27 103 c-42 161 -94 253
-161 283 -57 26 -79 24 -175 -16z m-5342 -2161 c41 -52 33 -63 -125 -168 -80
-54 -147 -96 -149 -94 -2 2 5 34 15 71 14 48 33 86 72 136 57 75 62 78 125 80
34 1 45 -4 62 -25z m3937 -59 c7 -18 -9 -61 -37 -95 l-20 -25 15 32 c9 18 16
48 16 68 0 35 16 48 26 20z m-635 -4977 l140 -73 84 0 83 0 155 -505 c113
-367 159 -534 171 -612 19 -130 65 -276 107 -343 45 -71 256 -848 298 -1099
17 -99 29 -182 27 -184 -7 -6 -120 134 -173 215 -29 45 -75 129 -102 187 -80
170 -153 233 -280 242 -89 7 -191 39 -234 75 -48 39 -174 191 -235 281 -104
156 -191 342 -269 578 -57 173 -119 297 -202 407 -106 140 -247 250 -414 324
l-58 26 49 44 c27 24 89 66 138 94 177 98 328 207 483 348 41 37 78 67 83 67
5 0 72 -33 149 -72z"></path>
    </g>
  </symbol>
  <symbol xmlns="http://www.w3.org/2000/svg" viewBox="0 0 48 48" id="cake">
    <path stroke="currentColor" fill="currentColor" d="M8 44q-.85 0-1.425-.575Q6 42.85 6 42V31.05q0-1.25.875-2.125T9 28.05h1.35v-9.1q0-1.25.875-2.125t2.125-.875h9.15v-3.2q-1-.7-1.525-1.525-.525-.825-.525-1.975 0-.75.275-1.425T21.5 6.65L24 4l2.5 2.65q.5.5.8 1.175.3.675.3 1.425 0 1.15-.55 1.975-.55.825-1.55 1.525v3.2h9.15q1.25 0 2.125.875t.875 2.125v9.1H39q1.25 0 2.125.875T42 31.05V42q0 .85-.575 1.425Q40.85 44 40 44Zm5.35-15.95h21.3v-9.1h-21.3ZM9 41h30v-9.95H9Zm4.35-12.95h21.3ZM9 41h30Zm30-12.95H9h30Z"></path>
  </symbol>
  <symbol xmlns="http://www.w3.org/2000/svg" viewBox="0 0 48 48" id="cart">
    <path stroke="currentColor" fill="currentColor" d="M14.35 43.95q-1.5 0-2.55-1.05-1.05-1.05-1.05-2.55 0-1.5 1.05-2.55 1.05-1.05 2.55-1.05 1.5 0 2.55 1.05 1.05 1.05 1.05 2.55 0 1.5-1.05 2.55-1.05 1.05-2.55 1.05Zm20 0q-1.5 0-2.55-1.05-1.05-1.05-1.05-2.55 0-1.5 1.05-2.55 1.05-1.05 2.55-1.05 1.5 0 2.55 1.05 1.05 1.05 1.05 2.55 0 1.5-1.05 2.55-1.05 1.05-2.55 1.05Zm-22.6-33 5.5 11.4h14.4l6.25-11.4Zm-1.5-3H39.7q1.15 0 1.75 1.05.6 1.05 0 2.1L34.7 23.25q-.55.95-1.425 1.525t-1.925.575H16.2l-2.8 5.2h24.55v3h-24.1q-2.1 0-3.025-1.4-.925-1.4.025-3.15l3.2-5.9L6.45 7h-3.9V4H8.4Zm7 14.4h14.4Z"></path>
  </symbol>
  <symbol xmlns="http://www.w3.org/2000/svg" viewBox="0 0 48 48" id="cake_add">
    <path stroke="currentColor" fill="currentColor" d="M39 15.75v-4.5h-4.5v-3H39v-4.5h3v4.5h4.5v3H42v4.5ZM6 44q-.85 0-1.425-.575Q4 42.85 4 42V31.05q0-1.25.875-2.125T7 28.05h1.35v-9.1q0-1.25.875-2.125t2.125-.875h9.15v-3.2q-1-.7-1.525-1.525-.525-.825-.525-1.975 0-.75.275-1.425T19.5 6.65L22 4l2.5 2.65q.5.5.8 1.175.3.675.3 1.425 0 1.15-.55 1.975-.55.825-1.55 1.525v3.2h9.15q1.25 0 2.125.875t.875 2.125v9.1H37q1.25 0 2.125.875T40 31.05V42q0 .85-.575 1.425Q38.85 44 38 44Zm5.35-15.95h21.3v-9.1h-21.3ZM7 41h30v-9.95H7Zm4.35-12.95h21.3ZM7 41h30Zm30-12.95H7h30Z"></path>
  </symbol>
  <symbol xmlns="http://www.w3.org/2000/svg" viewBox="0 0 48 48" id="chevron_left">
    <path stroke="currentColor" fill="currentColor" d="M28.05 36 16 23.95 28.05 11.9l2.15 2.15-9.9 9.9 9.9 9.9Z"></path>
  </symbol>
  <symbol xmlns="http://www.w3.org/2000/svg" viewBox="0 0 48 48" id="chevron_right">
    <path stroke="currentColor" fill="currentColor" d="m18.75 36-2.15-2.15 9.9-9.9-9.9-9.9 2.15-2.15L30.8 23.95Z"></path>
  </symbol>
  <symbol xmlns="http://www.w3.org/2000/svg" viewBox="0 0 48 48" id="check">
    <path stroke="currentColor" fill="currentColor" d="M18.9 35.7 7.7 24.5l2.15-2.15 9.05 9.05 19.2-19.2 2.15 2.15Z"></path>
  </symbol>
  <symbol xmlns="http://www.w3.org/2000/svg" viewBox="0 0 48 48" id="phone">
    <path stroke="currentColor" fill="currentColor" d="M39.75 42q-6.1 0-12.125-3T16.8 31.2Q12 26.4 9 20.375 6 14.35 6 8.25q0-.95.65-1.6Q7.3 6 8.25 6h7q.7 0 1.225.475.525.475.675 1.275l1.35 6.3q.1.7-.025 1.275t-.525.975l-5 5.05q2.8 4.65 6.275 8.1Q22.7 32.9 27.1 35.3l4.75-4.9q.5-.55 1.15-.775.65-.225 1.3-.075l5.95 1.3q.75.15 1.25.75T42 33v6.75q0 .95-.65 1.6-.65.65-1.6.65Z"></path>
  </symbol>
  <symbol xmlns="http://www.w3.org/2000/svg" viewBox="0 0 48 48" id="search">
    <path stroke="currentColor" fill="currentColor" d="M39.8 41.95 26.65 28.8q-1.5 1.3-3.5 2.025-2 .725-4.25.725-5.4 0-9.15-3.75T6 18.75q0-5.3 3.75-9.05 3.75-3.75 9.1-3.75 5.3 0 9.025 3.75 3.725 3.75 3.725 9.05 0 2.15-.7 4.15-.7 2-2.1 3.75L42 39.75Zm-20.95-13.4q4.05 0 6.9-2.875Q28.6 22.8 28.6 18.75t-2.85-6.925Q22.9 8.95 18.85 8.95q-4.1 0-6.975 2.875T9 18.75q0 4.05 2.875 6.925t6.975 2.875Z"></path>
  </symbol>
  <symbol xmlns="http://www.w3.org/2000/svg" viewBox="0 0 48 48" id="close">
    <path stroke="currentColor" fill="currentColor" d="m12.45 37.65-2.1-2.1L21.9 24 10.35 12.45l2.1-2.1L24 21.9l11.55-11.55 2.1 2.1L26.1 24l11.55 11.55-2.1 2.1L24 26.1Z"/>
  </symbol>
  <symbol xmlns="http://www.w3.org/2000/svg" viewBox="0 0 48 48" id="location_fill">
    <path stroke="currentColor" fill="currentColor" d="M24 23.5q1.45 0 2.475-1.025Q27.5 21.45 27.5 20q0-1.45-1.025-2.475Q25.45 16.5 24 16.5q-1.45 0-2.475 1.025Q20.5 18.55 20.5 20q0 1.45 1.025 2.475Q22.55 23.5 24 23.5ZM24 44q-8.05-6.85-12.025-12.725Q8 25.4 8 20.4q0-7.5 4.825-11.95Q17.65 4 24 4q6.35 0 11.175 4.45Q40 12.9 40 20.4q0 5-3.975 10.875T24 44Z"/>
  </symbol>
  <symbol xmlns="http://www.w3.org/2000/svg" viewBox="0 0 48 48" id="location">
    <path stroke="currentColor" fill="currentColor" d="M24 23.5q1.45 0 2.475-1.025Q27.5 21.45 27.5 20q0-1.45-1.025-2.475Q25.45 16.5 24 16.5q-1.45 0-2.475 1.025Q20.5 18.55 20.5 20q0 1.45 1.025 2.475Q22.55 23.5 24 23.5Zm0 16.55q6.65-6.05 9.825-10.975Q37 24.15 37 20.4q0-5.9-3.775-9.65T24 7q-5.45 0-9.225 3.75Q11 14.5 11 20.4q0 3.75 3.25 8.675Q17.5 34 24 40.05ZM24 44q-8.05-6.85-12.025-12.725Q8 25.4 8 20.4q0-7.5 4.825-11.95Q17.65 4 24 4q6.35 0 11.175 4.45Q40 12.9 40 20.4q0 5-3.975 10.875T24 44Zm0-23.6Z"/>
  </symbol>
  <symbol xmlns="http://www.w3.org/2000/svg" viewBox="0 0 48 48" id="shipping_fill">
    <path stroke="currentColor" fill="currentColor" d="M11.2 39.95q-2.45 0-4.175-1.725Q5.3 36.5 5.3 34.05H2V11q0-1.2.9-2.1Q3.8 8 5 8h28.95v8.35h5.25L46 25.4v8.65h-3.55q0 2.45-1.725 4.175Q39 39.95 36.55 39.95q-2.45 0-4.175-1.725Q30.65 36.5 30.65 34.05H17.1q0 2.45-1.725 4.175Q13.65 39.95 11.2 39.95Zm0-3q1.2 0 2.05-.85.85-.85.85-2.05 0-1.2-.85-2.05-.85-.85-2.05-.85-1.2 0-2.05.85-.85.85-.85 2.05 0 1.2.85 2.05.85.85 2.05.85Zm25.35 0q1.2 0 2.05-.85.85-.85.85-2.05 0-1.2-.85-2.05-.85-.85-2.05-.85-1.2 0-2.05.85-.85.85-.85 2.05 0 1.2.85 2.05.85.85 2.05.85Zm-2.6-10.2h9.3l-5.55-7.4h-3.75Z"/>
  </symbol>
  <symbol xmlns="http://www.w3.org/2000/svg" viewBox="0 0 48 48" id="load">
    <path stroke="currentColor" fill="currentColor" d="M24 40q-6.65 0-11.325-4.675Q8 30.65 8 24q0-6.65 4.675-11.325Q17.35 8 24 8q4.25 0 7.45 1.725T37 14.45V8h3v12.7H27.3v-3h8.4q-1.9-3-4.85-4.85Q27.9 11 24 11q-5.45 0-9.225 3.775Q11 18.55 11 24q0 5.45 3.775 9.225Q18.55 37 24 37q4.15 0 7.6-2.375 3.45-2.375 4.8-6.275h3.1q-1.45 5.25-5.75 8.45Q29.45 40 24 40Z"/>
  </symbol>
  <symbol xmlns="http://www.w3.org/2000/svg" viewBox="0 0 48 48" id="info">
    <path stroke="currentColor" fill="currentColor" d="M22.65 34h3V22h-3ZM24 18.3q.7 0 1.175-.45.475-.45.475-1.15t-.475-1.2Q24.7 15 24 15q-.7 0-1.175.5-.475.5-.475 1.2t.475 1.15q.475.45 1.175.45ZM24 44q-4.1 0-7.75-1.575-3.65-1.575-6.375-4.3-2.725-2.725-4.3-6.375Q4 28.1 4 23.95q0-4.1 1.575-7.75 1.575-3.65 4.3-6.35 2.725-2.7 6.375-4.275Q19.9 4 24.05 4q4.1 0 7.75 1.575 3.65 1.575 6.35 4.275 2.7 2.7 4.275 6.35Q44 19.85 44 24q0 4.1-1.575 7.75-1.575 3.65-4.275 6.375t-6.35 4.3Q28.15 44 24 44Zm.05-3q7.05 0 12-4.975T41 23.95q0-7.05-4.95-12T24 7q-7.05 0-12.025 4.95Q7 16.9 7 24q0 7.05 4.975 12.025Q16.95 41 24.05 41ZM24 24Z"/>
  </symbol>
  <symbol xmlns="http://www.w3.org/2000/svg" viewBox="0 0 48 48" id="edit">
    <path stroke="currentColor" fill="currentColor" d="M9 47.4q-1.2 0-2.1-.9-.9-.9-.9-2.1v-30q0-1.2.9-2.1.9-.9 2.1-.9h20.25l-3 3H9v30h30V27l3-3v20.4q0 1.2-.9 2.1-.9.9-2.1.9Zm15-18Zm9.1-17.6 2.15 2.1L21 28.1v4.3h4.25l14.3-14.3 2.1 2.1L26.5 35.4H18v-8.5Zm8.55 8.4-8.55-8.4 5-5q.85-.85 2.125-.85t2.125.9l4.2 4.25q.85.9.85 2.125t-.9 2.075Z"/>
  </symbol>
  <symbol xmlns="http://www.w3.org/2000/svg" viewBox="0 0 48 48" id="trash">
    <path stroke="currentColor" fill="currentColor" d="M13.05 42q-1.25 0-2.125-.875T10.05 39V10.5H8v-3h9.4V6h13.2v1.5H40v3h-2.05V39q0 1.2-.9 2.1-.9.9-2.1.9Zm21.9-31.5h-21.9V39h21.9Zm-16.6 24.2h3V14.75h-3Zm8.3 0h3V14.75h-3Zm-13.6-24.2V39Z"/>
  </symbol>
  <symbol xmlns="http://www.w3.org/2000/svg" viewBox="0 0 48 48" id="error">
    <path stroke="currentColor" fill="currentColor" d="M24 34q.7 0 1.175-.475.475-.475.475-1.175 0-.7-.475-1.175Q24.7 30.7 24 30.7q-.7 0-1.175.475-.475.475-.475 1.175 0 .7.475 1.175Q23.3 34 24 34Zm-1.35-7.65h3V13.7h-3ZM24 44q-4.1 0-7.75-1.575-3.65-1.575-6.375-4.3-2.725-2.725-4.3-6.375Q4 28.1 4 23.95q0-4.1 1.575-7.75 1.575-3.65 4.3-6.35 2.725-2.7 6.375-4.275Q19.9 4 24.05 4q4.1 0 7.75 1.575 3.65 1.575 6.35 4.275 2.7 2.7 4.275 6.35Q44 19.85 44 24q0 4.1-1.575 7.75-1.575 3.65-4.275 6.375t-6.35 4.3Q28.15 44 24 44Zm.05-3q7.05 0 12-4.975T41 23.95q0-7.05-4.95-12T24 7q-7.05 0-12.025 4.95Q7 16.9 7 24q0 7.05 4.975 12.025Q16.95 41 24.05 41ZM24 24Z"/>
  </symbol>
  <symbol xmlns="http://www.w3.org/2000/svg" viewBox="0 0 48 48" id="spot_off">
    <path stroke="currentColor" fill="currentColor" d="M22.5 44v-5.9h3V44ZM4 25.5v-3h5.9v3Zm34.1 0v-3H44v3Zm-1.15 13.6-4.1-4.1L35 32.85l4.1 4.1Zm-25.9 0L8.9 36.95l4.1-4.1L15.15 35Zm12.95-6q-3.75 0-6.425-2.675T14.9 24q0-2.45 1.05-4.4 1.05-1.95 2.95-3.2V6h10.2v10.4q1.9 1.25 2.95 3.2 1.05 1.95 1.05 4.4 0 3.75-2.675 6.425T24 33.1Zm-2.1-17.75q.55-.15 1.075-.225.525-.075 1.025-.075.55 0 1.075.075.525.075 1.025.225V9h-4.2ZM24 30.1q2.55 0 4.325-1.775Q30.1 26.55 30.1 24q0-2.55-1.775-4.325Q26.55 17.9 24 17.9q-2.55 0-4.325 1.775Q17.9 21.45 17.9 24q0 2.55 1.775 4.325Q21.45 30.1 24 30.1Zm0-6.1Z"/>
  </symbol>
  <symbol xmlns="http://www.w3.org/2000/svg" viewBox="0 0 48 48" id="spot_on">
    <path stroke="currentColor" fill="currentColor" d="M22.5 44v-5.9h3V44ZM4 25.5v-3h5.9v3Zm34.1 0v-3H44v3Zm-1.15 13.6-4.1-4.1L35 32.85l4.1 4.1Zm-25.9 0L8.9 36.95l4.1-4.1L15.15 35Zm12.95-6q-3.75 0-6.425-2.675T14.9 24q0-2.45 1.05-4.4 1.05-1.95 2.95-3.2V6h10.2v10.4q1.9 1.25 2.95 3.2 1.05 1.95 1.05 4.4 0 3.75-2.675 6.425T24 33.1Zm-2.1-17.75q.55-.15 1.05-.225.5-.075 1.05-.075t1.05.075q.5.075 1.05.225V9h-4.2Z"/>
  </symbol>
  <symbol xmlns="http://www.w3.org/2000/svg" viewBox="0 0 48 48" id="add">
    <path stroke="currentColor" fill="currentColor" d="M22.65 34h3v-8.3H34v-3h-8.35V14h-3v8.7H14v3h8.65ZM24 44q-4.1 0-7.75-1.575-3.65-1.575-6.375-4.3-2.725-2.725-4.3-6.375Q4 28.1 4 23.95q0-4.1 1.575-7.75 1.575-3.65 4.3-6.35 2.725-2.7 6.375-4.275Q19.9 4 24.05 4q4.1 0 7.75 1.575 3.65 1.575 6.35 4.275 2.7 2.7 4.275 6.35Q44 19.85 44 24q0 4.1-1.575 7.75-1.575 3.65-4.275 6.375t-6.35 4.3Q28.15 44 24 44Zm.05-3q7.05 0 12-4.975T41 23.95q0-7.05-4.95-12T24 7q-7.05 0-12.025 4.95Q7 16.9 7 24q0 7.05 4.975 12.025Q16.95 41 24.05 41ZM24 24Z"/>
  </symbol>
  <symbol xmlns="http://www.w3.org/2000/svg" viewBox="0 0 48 48" id="first_page">
    <path stroke="currentColor" fill="currentColor" d="M12 36V12h3v24Zm22.35-.15-11.7-11.7 11.7-11.7 2.15 2.15-9.55 9.55 9.55 9.55Z"/>
  </symbol>
  <symbol xmlns="http://www.w3.org/2000/svg" viewBox="0 0 48 48" id="last_page">
    <path stroke="currentColor" fill="currentColor" d="m13.6 35.75-2.15-2.15 9.6-9.6-9.6-9.6 2.15-2.15L25.35 24ZM33 36V12h3v24Z"/>
  </symbol>
  <symbol xmlns="http://www.w3.org/2000/svg" viewBox="0 0 48 48" id="arrow_up">
    <path stroke="currentColor" fill="currentColor" d="M22.5 40V13.7L10.1 26.1 8 24 24 8l16 16-2.1 2.1-12.4-12.4V40Z"/>
  </symbol>
  <symbol xmlns="http://www.w3.org/2000/svg" viewBox="0 0 48 48" id="save">
    <path stroke="currentColor" fill="currentColor" d="M42 13.85V39q0 1.2-.9 2.1-.9.9-2.1.9H9q-1.2 0-2.1-.9Q6 40.2 6 39V9q0-1.2.9-2.1Q7.8 6 9 6h25.15Zm-3 1.35L32.8 9H9v30h30ZM24 35.75q2.15 0 3.675-1.525T29.2 30.55q0-2.15-1.525-3.675T24 25.35q-2.15 0-3.675 1.525T18.8 30.55q0 2.15 1.525 3.675T24 35.75ZM11.65 18.8h17.9v-7.15h-17.9ZM9 15.2V39 9Z"/>
  </symbol>
  <symbol xmlns="http://www.w3.org/2000/svg" viewBox="0 0 48 48" id="arrow_back">
    <path stroke="currentColor" fill="currentColor" d="M24 40 8 24 24 8l2.1 2.1-12.4 12.4H40v3H13.7l12.4 12.4Z"/>
  </symbol>
  <symbol xmlns="http://www.w3.org/2000/svg" viewBox="0 0 48 48" id="home">
    <path stroke="currentColor" fill="currentColor" d="M11 39h7.5V26.5h11V39H37V19.5L24 9.75 11 19.5Zm-3 3V18L24 6l16 12v24H26.5V29.5h-5V42Zm16-17.65Z"/>
  </symbol>
  <symbol xmlns="http://www.w3.org/2000/svg" viewBox="0 0 48 48" id="home_fill">
    <path stroke="currentColor" fill="currentColor" d="M8 42V18L24 6l16 12v24H28V28h-8v14Z"/>
  </symbol>
  <symbol xmlns="http://www.w3.org/2000/svg" viewBox="0 0 48 48" id="arrow_right">
    <path stroke="currentColor" fill="currentColor" d="M20 34V14l10 10Z"/>
  </symbol>
  <symbol xmlns="http://www.w3.org/2000/svg" viewBox="0 0 48 48" id="cake">
    <path stroke="currentColor" fill="currentColor" d="M8 44q-.85 0-1.425-.575Q6 42.85 6 42V31.05q0-1.25.875-2.125T9 28.05h1.35v-9.1q0-1.25.875-2.125t2.125-.875h9.15v-3.2q-1-.7-1.525-1.525-.525-.825-.525-1.975 0-.75.275-1.425T21.5 6.65L24 4l2.5 2.65q.5.5.8 1.175.3.675.3 1.425 0 1.15-.55 1.975-.55.825-1.55 1.525v3.2h9.15q1.25 0 2.125.875t.875 2.125v9.1H39q1.25 0 2.125.875T42 31.05V42q0 .85-.575 1.425Q40.85 44 40 44Zm5.35-15.95h21.3v-9.1h-21.3ZM9 41h30v-9.95H9Zm4.35-12.95h21.3ZM9 41h30Zm30-12.95H9h30Z"/>
  </symbol>
  <symbol xmlns="http://www.w3.org/2000/svg" viewBox="0 0 48 48" id="cake_fill">
    <path stroke="black" fill="currentColor" d="M8 44q-.85 0-1.425-.575Q6 42.85 6 42V31.05q0-1.25.875-2.125T9 28.05h30q1.25 0 2.125.875T42 31.05V42q0 .85-.575 1.425Q40.85 44 40 44Zm2.35-18.95v-6.1q0-1.25.875-2.125t2.125-.875h9.15v-3.2q-1-.7-1.525-1.525-.525-.825-.525-1.975 0-.75.275-1.425T21.5 6.65L24 4l2.5 2.65q.5.5.8 1.175.3.675.3 1.425 0 1.15-.55 1.975-.55.825-1.55 1.525v3.2h9.15q1.25 0 2.125.875t.875 2.125v6.1Z"/>
  </symbol>
  <symbol xmlns="http://www.w3.org/2000/svg" viewBox="0 0 48 48" id="mail_fill">
    <path stroke="currentColor" fill="currentColor" d="M7 40q-1.2 0-2.1-.9Q4 38.2 4 37V11q0-1.2.9-2.1Q5.8 8 7 8h34q1.2 0 2.1.9.9.9.9 2.1v26q0 1.2-.9 2.1-.9.9-2.1.9Zm17-15.1 17-11.15V11L24 21.9 7 11v2.75Z"/>
  </symbol>
  <symbol xmlns="http://www.w3.org/2000/svg" viewBox="0 0 48 48" id="mail_seen_fill">
    <path stroke="currentColor" fill="currentColor" d="m24 2 18.55 11.1q.85.45 1.15 1.225.3.775.3 1.525V39q0 1.2-.9 2.1-.9.9-2.1.9H7q-1.2 0-2.1-.9Q4 40.2 4 39V15.85q0-.75.325-1.525.325-.775 1.125-1.225Zm0 23.3 16.8-9.85L24 5.35 7.2 15.45Z"/>
  </symbol>
  <symbol xmlns="http://www.w3.org/2000/svg" viewBox="0 0 48 48" id="check">
    <path stroke="currentColor" fill="currentColor" d="M18.9 36.9 6.5 24.5l3.4-3.4 9 9 19.15-19.15 3.4 3.4Z"/>
  </symbol>
  <symbol xmlns="http://www.w3.org/2000/svg" viewBox="0 0 48 48" id="email_unread">
    <path stroke="currentColor" fill="currentColor" d="M7 40q-1.2 0-2.1-.9Q4 38.2 4 37V11q0-1.2.9-2.1Q5.8 8 7 8h21.7q-.15.75-.2 1.5-.05.75.05 1.5H7.25L24 21.9l7.55-4.9q.5.45 1.05.825.55.375 1.15.675L24 24.9 7 13.75V37h34V19q.85-.25 1.575-.675Q43.3 17.9 44 17.35V37q0 1.2-.9 2.1-.9.9-2.1.9Zm0-29v26-26Zm31 4.5q-2.3 0-3.9-1.6T32.5 10q0-2.3 1.6-3.9T38 4.5q2.3 0 3.9 1.6t1.6 3.9q0 2.3-1.6 3.9T38 15.5Z"/>
  </symbol>
  <symbol xmlns="http://www.w3.org/2000/svg" viewBox="0 0 48 48" id="mail_seen">
    <path stroke="currentColor" fill="currentColor" d="m24 2 18.55 11.1q.85.45 1.15 1.225.3.775.3 1.525V39q0 1.2-.9 2.1-.9.9-2.1.9H7q-1.2 0-2.1-.9Q4 40.2 4 39V15.85q0-.75.325-1.525.325-.775 1.125-1.225Zm0 23.3 16.8-9.85L24 5.35 7.2 15.45Zm0 3.35-17-10V39h34V18.65ZM24 39h17H7Z"/>
  </symbol>
  <symbol xmlns="http://www.w3.org/2000/svg" viewBox="0 0 48 48" id="eye">
    <path stroke="currentColor" fill="currentColor" d="M24 31.5q3.55 0 6.025-2.475Q32.5 26.55 32.5 23q0-3.55-2.475-6.025Q27.55 14.5 24 14.5q-3.55 0-6.025 2.475Q15.5 19.45 15.5 23q0 3.55 2.475 6.025Q20.45 31.5 24 31.5Zm0-2.9q-2.35 0-3.975-1.625T18.4 23q0-2.35 1.625-3.975T24 17.4q2.35 0 3.975 1.625T29.6 23q0 2.35-1.625 3.975T24 28.6Zm0 9.4q-7.3 0-13.2-4.15Q4.9 29.7 2 23q2.9-6.7 8.8-10.85Q16.7 8 24 8q7.3 0 13.2 4.15Q43.1 16.3 46 23q-2.9 6.7-8.8 10.85Q31.3 38 24 38Zm0-15Zm0 12q6.05 0 11.125-3.275T42.85 23q-2.65-5.45-7.725-8.725Q30.05 11 24 11t-11.125 3.275Q7.8 17.55 5.1 23q2.7 5.45 7.775 8.725Q17.95 35 24 35Z"/>
  </symbol>
  <symbol xmlns="http://www.w3.org/2000/svg" viewBox="0 0 48 48" id="eye_fill">
    <path stroke="currentColor" fill="currentColor" d="M24 31.5q3.55 0 6.025-2.475Q32.5 26.55 32.5 23q0-3.55-2.475-6.025Q27.55 14.5 24 14.5q-3.55 0-6.025 2.475Q15.5 19.45 15.5 23q0 3.55 2.475 6.025Q20.45 31.5 24 31.5Zm0-2.9q-2.35 0-3.975-1.625T18.4 23q0-2.35 1.625-3.975T24 17.4q2.35 0 3.975 1.625T29.6 23q0 2.35-1.625 3.975T24 28.6Zm0 9.4q-7.3 0-13.2-4.15Q4.9 29.7 2 23q2.9-6.7 8.8-10.85Q16.7 8 24 8q7.3 0 13.2 4.15Q43.1 16.3 46 23q-2.9 6.7-8.8 10.85Q31.3 38 24 38Z"/>
  </symbol>
  <symbol xmlns="http://www.w3.org/2000/svg" viewBox="0 0 48 48" id="trending">
    <path stroke="currentColor" fill="currentColor" d="M6.15 36 4 33.85 18.6 19.3l8.35 8.35L39 15.6h-6.35v-3H44v11.35h-2.95V17.8L26.9 31.95l-8.35-8.35Z"/>
  </symbol>
  <symbol xmlns="http://www.w3.org/2000/svg" viewBox="0 0 48 48" id="cart_fill">
    <path stroke="black" fill="currentColor" d="M14.35 43.95q-1.5 0-2.55-1.05-1.05-1.05-1.05-2.55 0-1.5 1.05-2.55 1.05-1.05 2.55-1.05 1.5 0 2.55 1.05 1.05 1.05 1.05 2.55 0 1.5-1.05 2.55-1.05 1.05-2.55 1.05Zm20 0q-1.5 0-2.55-1.05-1.05-1.05-1.05-2.55 0-1.5 1.05-2.55 1.05-1.05 2.55-1.05 1.5 0 2.55 1.05 1.05 1.05 1.05 2.55 0 1.5-1.05 2.55-1.05 1.05-2.55 1.05Zm-24.1-36H39.7q1.15 0 1.75 1.05.6 1.05 0 2.1L34.7 23.25q-.55.95-1.425 1.525t-1.925.575H16.2l-2.8 5.2h24.55v3h-24.1q-2.1 0-3.025-1.4-.925-1.4.025-3.15l3.2-5.9L6.45 7h-3.9V4H8.4Z"/>
  </symbol>
  <symbol xmlns="http://www.w3.org/2000/svg" viewBox="0 0 48 48" id="navigation_fill">
    <path stroke="currentColor" fill="currentColor" d="m26.35 42-5.7-14.65L6 21.65V19.5L42 6 28.5 42Z"/>
  </symbol>
  <symbol xmlns="http://www.w3.org/2000/svg" viewBox="0 0 48 48" id="my_location_fill">
    <path stroke="currentColor" fill="currentColor" d="M22.5 45.9v-3.75q-6.85-.7-11.4-5.25-4.55-4.55-5.25-11.4H2.1v-3h3.75q.7-6.85 5.25-11.4 4.55-4.55 11.4-5.25V2.1h3v3.75q6.85.7 11.4 5.25 4.55 4.55 5.25 11.4h3.75v3h-3.75q-.7 6.85-5.25 11.4-4.55 4.55-11.4 5.25v3.75Zm1.5-6.7q6.25 0 10.725-4.475T39.2 24q0-6.25-4.475-10.725T24 8.8q-6.25 0-10.725 4.475T8.8 24q0 6.25 4.475 10.725T24 39.2Zm0-7.7q-3.15 0-5.325-2.175Q16.5 27.15 16.5 24q0-3.15 2.175-5.325Q20.85 16.5 24 16.5q3.15 0 5.325 2.175Q31.5 20.85 31.5 24q0 3.15-2.175 5.325Q27.15 31.5 24 31.5Z"/>
  </symbol>
  <symbol xmlns="http://www.w3.org/2000/svg" viewBox="0 0 48 48" id="send_fill">
    <path stroke="currentColor" fill="currentColor" d="M6 40V27.75L21.1 24 6 20.15V8l38 16Z"/>
  </symbol>
  <symbol xmlns="http://www.w3.org/2000/svg" viewBox="0 0 48 48" id="lock_fill">
    <path stroke="currentColor" fill="currentColor" d="M11 44q-1.25 0-2.125-.875T8 41V19.3q0-1.25.875-2.125T11 16.3h3.5v-4.8q0-3.95 2.775-6.725Q20.05 2 24 2q3.95 0 6.725 2.775Q33.5 7.55 33.5 11.5v4.8H37q1.25 0 2.125.875T40 19.3V41q0 1.25-.875 2.125T37 44Zm13-10q1.6 0 2.725-1.1t1.125-2.65q0-1.5-1.125-2.725T24 26.3q-1.6 0-2.725 1.225T20.15 30.25q0 1.55 1.125 2.65Q22.4 34 24 34Zm-6.5-17.7h13v-4.8q0-2.7-1.9-4.6Q26.7 5 24 5q-2.7 0-4.6 1.9-1.9 1.9-1.9 4.6Z"/>
  </symbol>
  <symbol xmlns="http://www.w3.org/2000/svg" viewBox="0 0 48 48" id="logout">
    <path stroke="currentColor" fill="currentColor" d="M9 42q-1.2 0-2.1-.9Q6 40.2 6 39V9q0-1.2.9-2.1Q7.8 6 9 6h14.55v3H9v30h14.55v3Zm24.3-9.25-2.15-2.15 5.1-5.1h-17.5v-3h17.4l-5.1-5.1 2.15-2.15 8.8 8.8Z"/>
  </symbol>
  <symbol xmlns="http://www.w3.org/2000/svg" viewBox="0 0 48 48" id="menu">
    <path stroke="currentColor" fill="currentColor" d="M6 36v-3h36v3Zm0-10.5v-3h36v3ZM6 15v-3h36v3Z"/>
  </symbol>
  <symbol xmlns="http://www.w3.org/2000/svg" viewBox="0 0 48 48" id="small_arrow_right">
    <path stroke="currentColor" fill="currentColor" d="M20 34V14l10 10Z"/>
  </symbol>
  <symbol xmlns="http://www.w3.org/2000/svg" viewBox="0 0 48 48" id="euro">
    <path stroke="currentColor" fill="currentColor" d="M30 42q-5.75 0-10.625-3.375T12.75 29.5H6v-3h6.15q-.2-1.4-.175-2.5.025-1.1.175-2.5H6v-3h6.75q1.75-5.75 6.625-9.125T30 6q3.45 0 6.475 1.175Q39.5 8.35 42 10.6l-2.15 2.1q-2.05-1.8-4.6-2.75T30 9q-4.7 0-8.575 2.625Q17.55 14.25 15.95 18.5H30v3H15.2q-.25 1.35-.25 2.5t.25 2.5H30v3H15.95q1.6 4.25 5.475 6.875Q25.3 39 30 39q2.65 0 5.2-.9 2.55-.9 4.7-2.8l2.1 2.1q-2.2 2.1-5.35 3.35Q33.5 42 30 42Z"/>
  </symbol>
  <symbol xmlns="http://www.w3.org/2000/svg" viewBox="0 0 48 48" id="database">
    <path stroke="currentColor" fill="currentColor" d="M24 22q-8.05 0-13.025-2.45T6 14q0-3.15 4.975-5.575Q15.95 6 24 6t13.025 2.425Q42 10.85 42 14q0 3.1-4.975 5.55Q32.05 22 24 22Zm0 10q-7.3 0-12.65-2.2Q6 27.6 6 24.5v-5q0 1.95 1.875 3.375t4.65 2.35q2.775.925 5.9 1.35Q21.55 27 24 27q2.5 0 5.6-.425 3.1-.425 5.875-1.325 2.775-.9 4.65-2.325Q42 21.5 42 19.5v5q0 3.1-5.35 5.3Q31.3 32 24 32Zm0 10q-7.3 0-12.65-2.2Q6 37.6 6 34.5v-5q0 1.95 1.875 3.375t4.65 2.35q2.775.925 5.9 1.35Q21.55 37 24 37q2.5 0 5.6-.425 3.1-.425 5.875-1.325 2.775-.9 4.65-2.325Q42 31.5 42 29.5v5q0 3.1-5.35 5.3Q31.3 42 24 42Z"/>
  </symbol>
  <symbol xmlns="http://www.w3.org/2000/svg" viewBox="0 0 48 48" id="user">
    <path stroke="currentColor" fill="currentColor" d="M24 23.95q-3.3 0-5.4-2.1-2.1-2.1-2.1-5.4 0-3.3 2.1-5.4 2.1-2.1 5.4-2.1 3.3 0 5.4 2.1 2.1 2.1 2.1 5.4 0 3.3-2.1 5.4-2.1 2.1-5.4 2.1ZM8 40v-4.7q0-1.9.95-3.25T11.4 30q3.35-1.5 6.425-2.25Q20.9 27 24 27q3.1 0 6.15.775 3.05.775 6.4 2.225 1.55.7 2.5 2.05.95 1.35.95 3.25V40Z"/>
  </symbol>
</svg>





